<svg width="16" height="16" viewBox="0 0 16 16" fill="none" xmlns="http://www.w3.org/2000/svg">
<path d="M14.5759 15.6064C12.8348 15.6064 11.1144 15.2271 9.41468 14.4683C7.71485 13.7096 6.16656 12.6335 4.76982 11.24C3.37294 9.84314 2.29519 8.29403 1.53657 6.59269C0.777815 4.89134 0.398438 3.1701 0.398438 1.42895C0.398438 1.13495 0.495864 0.889701 0.690717 0.693196C0.885569 0.49669 1.13 0.398438 1.424 0.398438H4.76527C5.0338 0.398438 5.26356 0.477825 5.45455 0.636599C5.64555 0.795373 5.76474 0.998901 5.81211 1.24718L6.3442 4.03509C6.38482 4.30485 6.37876 4.53358 6.32602 4.72127C6.27314 4.90897 6.17186 5.0727 6.02217 5.21247L3.98882 7.19728C4.25115 7.67057 4.56174 8.13161 4.9206 8.58039C5.2796 9.02917 5.6797 9.46728 6.12091 9.89472C6.53141 10.3051 6.9543 10.6812 7.38959 11.0231C7.82473 11.3651 8.28095 11.6743 8.75824 11.9508L10.7344 9.98953C10.8945 9.83254 11.0909 9.71983 11.3235 9.65139C11.5561 9.58281 11.7935 9.56884 12.0357 9.60946L14.7527 10.1732C15.0148 10.2479 15.2218 10.3749 15.3737 10.554C15.5255 10.7332 15.6015 10.9469 15.6015 11.1952V14.5759C15.6015 14.8699 15.5032 15.1152 15.3067 15.3117C15.1102 15.5082 14.8666 15.6064 14.5759 15.6064Z" fill="white"/>
</svg>
