<svg width="18" height="16" viewBox="0 0 18 16" fill="none" xmlns="http://www.w3.org/2000/svg">
<path d="M3.87523 13.7821L2.17237 15.485C1.87452 15.7828 1.53308 15.8504 1.14805 15.6876C0.762893 15.525 0.570312 15.233 0.570312 14.8118V2.10624C0.570312 1.58599 0.753529 1.14265 1.11996 0.776212C1.4864 0.409779 1.92974 0.226562 2.44999 0.226562H15.5511C16.0714 0.226562 16.5147 0.409779 16.8811 0.776212C17.2476 1.14265 17.4308 1.58599 17.4308 2.10624V11.9024C17.4308 12.4227 17.2476 12.866 16.8811 13.2325C16.5147 13.5989 16.0714 13.7821 15.5511 13.7821H3.87523ZM4.8694 10.3093H9.82678C10.0609 10.3093 10.2571 10.2301 10.4155 10.0717C10.5738 9.91336 10.653 9.71713 10.653 9.48303C10.653 9.24893 10.5738 9.0527 10.4155 8.89434C10.2571 8.73598 10.0609 8.6568 9.82678 8.6568H4.8694C4.6353 8.6568 4.43907 8.73598 4.28071 8.89434C4.12235 9.0527 4.04317 9.24893 4.04317 9.48303C4.04317 9.71713 4.12235 9.91336 4.28071 10.0717C4.43907 10.2301 4.6353 10.3093 4.8694 10.3093ZM4.8694 7.83057H13.1317C13.3658 7.83057 13.562 7.75139 13.7204 7.59303C13.8787 7.43467 13.9579 7.23844 13.9579 7.00434C13.9579 6.77024 13.8787 6.57401 13.7204 6.41565C13.562 6.25729 13.3658 6.17811 13.1317 6.17811H4.8694C4.6353 6.17811 4.43907 6.25729 4.28071 6.41565C4.12235 6.57401 4.04317 6.77024 4.04317 7.00434C4.04317 7.23844 4.12235 7.43467 4.28071 7.59303C4.43907 7.75139 4.6353 7.83057 4.8694 7.83057ZM4.8694 5.35188H13.1317C13.3658 5.35188 13.562 5.2727 13.7204 5.11433C13.8787 4.95597 13.9579 4.75974 13.9579 4.52565C13.9579 4.29155 13.8787 4.09532 13.7204 3.93696C13.562 3.7786 13.3658 3.69942 13.1317 3.69942H4.8694C4.6353 3.69942 4.43907 3.7786 4.28071 3.93696C4.12235 4.09532 4.04317 4.29155 4.04317 4.52565C4.04317 4.75974 4.12235 4.95597 4.28071 5.11433C4.43907 5.2727 4.6353 5.35188 4.8694 5.35188Z" fill="white"/>
</svg>
