<svg width="18" height="14" viewBox="0 0 18 14" fill="none" xmlns="http://www.w3.org/2000/svg">
<path d="M2.44999 13.7743C1.92974 13.7743 1.4864 13.5911 1.11996 13.2246C0.753529 12.8582 0.570312 12.4149 0.570312 11.8946V2.09842C0.570312 1.57817 0.753529 1.13483 1.11996 0.768399C1.4864 0.401966 1.92974 0.21875 2.44999 0.21875H15.5511C16.0714 0.21875 16.5147 0.401966 16.8811 0.768399C17.2476 1.13483 17.4308 1.57817 17.4308 2.09842V11.8946C17.4308 12.4149 17.2476 12.8582 16.8811 13.2246C16.5147 13.5911 16.0714 13.7743 15.5511 13.7743H2.44999ZM9.00055 7.86592C9.08262 7.86592 9.16641 7.85394 9.25193 7.82998C9.33758 7.80602 9.41979 7.77008 9.49856 7.72216L15.1911 4.13033C15.3044 4.06148 15.3927 3.97046 15.4561 3.85726C15.5194 3.74407 15.5511 3.61896 15.5511 3.48195C15.5511 3.18671 15.4234 2.96287 15.1679 2.81043C14.9124 2.65785 14.6491 2.66556 14.3783 2.83356L9.00055 6.22958L3.62282 2.83356C3.35526 2.66887 3.09286 2.66295 2.83563 2.8158C2.57853 2.96865 2.44999 3.1907 2.44999 3.48195C2.44999 3.63273 2.48166 3.7639 2.545 3.87544C2.60835 3.98698 2.69669 4.07194 2.81002 4.13033L8.50254 7.72216C8.5813 7.77008 8.66351 7.80602 8.74917 7.82998C8.83468 7.85394 8.91847 7.86592 9.00055 7.86592Z" fill="white"/>
</svg>
