<svg width="19" height="20" viewBox="0 0 19 20" fill="none" xmlns="http://www.w3.org/2000/svg">
<path d="M15.0231 12.4817L13.706 11.1646C13.918 10.8164 14.0769 10.4531 14.1829 10.0746C14.2889 9.69611 14.3419 9.3025 14.3419 8.89375H16.1585C16.1585 9.55986 16.0601 10.1919 15.8633 10.7899C15.6665 11.3879 15.3865 11.9518 15.0231 12.4817ZM12.3435 9.75667L7.07521 4.48833V3.44375C7.07521 2.68681 7.34014 2.0434 7.87 1.51354C8.39986 0.983681 9.04326 0.71875 9.80021 0.71875C10.5572 0.71875 11.2006 0.983681 11.7304 1.51354C12.2603 2.0434 12.5252 2.68681 12.5252 3.44375V8.89375C12.5252 9.06028 12.5063 9.21167 12.4684 9.34792C12.4306 9.48417 12.389 9.62042 12.3435 9.75667ZM8.89188 17.9771V15.1613C7.31743 14.9493 6.01549 14.2491 4.98604 13.0607C3.9566 11.8723 3.44188 10.4833 3.44188 8.89375H5.25854C5.25854 10.1503 5.70135 11.2214 6.58698 12.107C7.4726 12.9926 8.54368 13.4354 9.80021 13.4354C10.3149 13.4354 10.8032 13.3559 11.2649 13.197C11.7266 13.038 12.1467 12.8147 12.5252 12.5271L13.8196 13.8215C13.3806 14.1697 12.8999 14.4611 12.3776 14.6957C11.8553 14.9304 11.299 15.0856 10.7085 15.1613V17.9771H8.89188ZM16.8852 19.4304L0.171875 2.71708L1.44354 1.44542L18.1569 18.1588L16.8852 19.4304Z" fill="black" fill-opacity="0.6"/>
</svg>
