<svg width="14" height="18" viewBox="0 0 14 18" fill="none" xmlns="http://www.w3.org/2000/svg">
<path d="M7.29566 10.9544C6.53874 10.9544 5.89535 10.6895 5.36551 10.1596C4.83566 9.62978 4.57074 8.98639 4.57074 8.22947V2.77961C4.57074 2.02269 4.83566 1.3793 5.36551 0.849458C5.89535 0.319611 6.53874 0.0546875 7.29566 0.0546875C8.05259 0.0546875 8.69597 0.319611 9.22582 0.849458C9.75567 1.3793 10.0206 2.02269 10.0206 2.77961V8.22947C10.0206 8.98639 9.75567 9.62978 9.22582 10.1596C8.69597 10.6895 8.05259 10.9544 7.29566 10.9544ZM6.38735 17.3126V14.5195C4.81295 14.3076 3.51104 13.6036 2.48163 12.4077C1.45221 11.2118 0.9375 9.81901 0.9375 8.22947H2.75412C2.75412 9.48596 3.19707 10.5572 4.08297 11.4431C4.96888 12.329 6.03977 12.7716 7.29566 12.771C8.55155 12.7704 9.62275 12.3275 10.5093 11.4422C11.3958 10.5569 11.8384 9.48596 11.8372 8.22947H13.6538C13.6538 9.81901 13.1391 11.2118 12.1097 12.4077C11.0803 13.6036 9.77838 14.3076 8.20397 14.5195V17.3126H6.38735Z" fill="black" fill-opacity="0.6"/>
</svg>
