<svg width="16" height="16" viewBox="0 0 16 16" fill="none" xmlns="http://www.w3.org/2000/svg">
<path d="M5.38835 11.4388H2.07951C1.76701 11.4388 1.50524 11.3329 1.29421 11.1212C1.08318 10.9094 0.977298 10.6476 0.976562 10.3359V5.92408C0.976562 5.61157 1.08245 5.34981 1.29421 5.13878C1.50598 4.92775 1.76774 4.82187 2.07951 4.82113H5.38835L9.02807 1.18141C9.37734 0.832139 9.77734 0.75383 10.2281 0.946478C10.6788 1.13913 10.9038 1.48398 10.9031 1.98104V14.2789C10.9031 14.7752 10.6781 15.1201 10.2281 15.3135C9.77808 15.5068 9.37808 15.4285 9.02807 15.0785L5.38835 11.4388ZM15.8663 8.12997C15.8663 8.90203 15.6917 9.63292 15.3424 10.3226C14.9932 11.0123 14.5336 11.5774 13.9638 12.0179C13.7799 12.1282 13.5917 12.1329 13.3991 12.0322C13.2064 11.9315 13.1097 11.7704 13.109 11.5491V4.65569C13.109 4.4351 13.2057 4.27444 13.3991 4.1737C13.5924 4.07296 13.7807 4.07738 13.9638 4.18694C14.5336 4.6465 14.9932 5.22554 15.3424 5.92408C15.6917 6.62261 15.8663 7.35791 15.8663 8.12997Z" fill="black" fill-opacity="0.6"/>
</svg>
