<svg width="18" height="19" viewBox="0 0 18 19" fill="none" xmlns="http://www.w3.org/2000/svg">
<path d="M13.7436 15.6794C13.5771 15.7853 13.4106 15.8838 13.2441 15.9746C13.0775 16.0654 12.9034 16.1487 12.7218 16.2244C12.4947 16.3303 12.2638 16.3303 12.0292 16.2244C11.7945 16.1184 11.6318 15.9443 11.5409 15.7021C11.4501 15.475 11.4615 15.2517 11.575 15.0322C11.6885 14.8127 11.8589 14.6499 12.0859 14.544C12.1465 14.5137 12.2033 14.4834 12.2563 14.4531C12.3092 14.4228 12.366 14.3926 12.4266 14.3623L9.40635 11.3421V13.8627C9.40635 14.2715 9.2209 14.5553 8.85 14.7143C8.4791 14.8732 8.14983 14.8089 7.86219 14.5212L4.86469 11.5238H2.13969C1.88233 11.5238 1.6666 11.4367 1.4925 11.2626C1.3184 11.0885 1.23135 10.8728 1.23135 10.6154V6.98208C1.23135 6.72472 1.3184 6.50899 1.4925 6.3349C1.6666 6.1608 1.88233 6.07375 2.13969 6.07375H4.13802L0.413854 2.34958C0.247326 2.18306 0.164062 1.97111 0.164062 1.71375C0.164062 1.45639 0.247326 1.24444 0.413854 1.07792C0.580382 0.911389 0.792326 0.828125 1.04969 0.828125C1.30705 0.828125 1.51899 0.911389 1.68552 1.07792L17.1272 16.5196C17.2937 16.6861 17.377 16.8981 17.377 17.1554C17.377 17.4128 17.2937 17.6247 17.1272 17.7913C16.9607 17.9578 16.7487 18.041 16.4914 18.041C16.234 18.041 16.022 17.9578 15.8555 17.7913L13.7436 15.6794ZM15.7647 8.77604C15.7647 7.51951 15.4316 6.37274 14.7655 5.33573C14.0994 4.29872 13.2062 3.52285 12.0859 3.00813C11.8589 2.90215 11.6923 2.73941 11.5864 2.5199C11.4804 2.30038 11.4652 2.07708 11.5409 1.85C11.6318 1.60778 11.7945 1.43368 12.0292 1.32771C12.2638 1.22174 12.5023 1.22174 12.7445 1.32771C14.213 1.97868 15.3862 2.97028 16.2643 4.3025C17.1423 5.63472 17.5814 7.1259 17.5814 8.77604C17.5814 9.27563 17.5359 9.77142 17.4451 10.2634C17.3543 10.7555 17.2256 11.2285 17.0591 11.6827C16.938 12.0158 16.7525 12.2239 16.5027 12.3072C16.2529 12.3905 16.022 12.3942 15.8101 12.3185C15.5982 12.2428 15.4278 12.1066 15.2992 11.9098C15.1705 11.713 15.1667 11.4859 15.2878 11.2285C15.4543 10.8349 15.5755 10.4375 15.6511 10.0364C15.7268 9.63517 15.7647 9.21507 15.7647 8.77604ZM11.927 5.55146C12.4266 5.86938 12.8126 6.34625 13.0851 6.98208C13.3576 7.61792 13.4939 8.22347 13.4939 8.79875V9.02583C13.4939 9.10153 13.4863 9.17722 13.4711 9.25292C13.4409 9.44972 13.3349 9.5784 13.1532 9.63896C12.9716 9.69951 12.805 9.6541 12.6536 9.50271L11.4955 8.34458C11.4047 8.25375 11.3366 8.15156 11.2911 8.03802C11.2457 7.92448 11.223 7.80715 11.223 7.68604V5.9375C11.223 5.75583 11.3025 5.62337 11.4615 5.5401C11.6204 5.45684 11.7756 5.46063 11.927 5.55146ZM7.3626 4.21167C7.27177 4.12083 7.22635 4.01486 7.22635 3.89375C7.22635 3.77264 7.27177 3.66667 7.3626 3.57583L7.86219 3.07625C8.14983 2.78861 8.4791 2.72427 8.85 2.88323C9.2209 3.04219 9.40635 3.32604 9.40635 3.73479V5.16542C9.40635 5.37736 9.31552 5.52118 9.13385 5.59688C8.95219 5.67257 8.78566 5.63472 8.63427 5.48333L7.3626 4.21167Z" fill="black" fill-opacity="0.6"/>
</svg>
